<svg width="26" height="26" viewBox="0 0 26 26" fill="none" xmlns="http://www.w3.org/2000/svg">
<path d="M15.7698 3.66667C15.7698 2.95942 15.4781 2.28115 14.9589 1.78105C14.4398 1.28095 13.7356 1 13.0014 1C12.2672 1 11.563 1.28095 11.0438 1.78105C10.5246 2.28115 10.233 2.95942 10.233 3.66667M23.0507 9.928L24.9678 21.928C25.0285 22.3078 25.0032 22.6957 24.8937 23.0652C24.7842 23.4348 24.5931 23.7771 24.3335 24.0689C24.0738 24.3606 23.7518 24.5948 23.3895 24.7556C23.0271 24.9163 22.633 24.9997 22.234 25H3.76874C3.36958 25 2.97513 24.9169 2.61243 24.7564C2.24974 24.5959 1.92737 24.3617 1.66744 24.0699C1.40751 23.7781 1.21616 23.4356 1.10651 23.0659C0.996855 22.6962 0.971495 22.308 1.03217 21.928L2.94929 9.928C3.04985 9.29812 3.38127 8.72376 3.88353 8.30894C4.38578 7.89412 5.02565 7.66627 5.68725 7.66667H20.3155C20.9769 7.66659 21.6164 7.89458 22.1184 8.30937C22.6203 8.72416 22.9502 9.29835 23.0507 9.928Z" stroke="#999999" stroke-width="1.5" stroke-linecap="round" stroke-linejoin="round"/>
</svg>
