<svg width="20" height="16" viewBox="0 0 20 16" fill="none"
    xmlns="http://www.w3.org/2000/svg">
    <path d="M7.49996 1.71663C8.30833 1.4598 9.15178 1.33047 9.99996 1.3333C13.485 1.3333 15.8566 3.41663 17.2708 5.2533C17.9791 6.17496 18.3333 6.63413 18.3333 7.99996C18.3333 9.36663 17.9791 9.8258 17.2708 10.7466C15.8566 12.5833 13.485 14.6666 9.99996 14.6666C6.51496 14.6666 4.14329 12.5833 2.72913 10.7466C2.02079 9.82663 1.66663 9.3658 1.66663 7.99996C1.66663 6.6333 2.02079 6.17413 2.72913 5.2533C3.16121 4.68898 3.64224 4.16389 4.16663 3.68413" stroke="#999999" stroke-width="1.5" stroke-linecap="round"/>
    <path d="M12.5 8C12.5 8.66304 12.2366 9.29893 11.7678 9.76777C11.2989 10.2366 10.663 10.5 10 10.5C9.33696 10.5 8.70107 10.2366 8.23223 9.76777C7.76339 9.29893 7.5 8.66304 7.5 8C7.5 7.33696 7.76339 6.70107 8.23223 6.23223C8.70107 5.76339 9.33696 5.5 10 5.5C10.663 5.5 11.2989 5.76339 11.7678 6.23223C12.2366 6.70107 12.5 7.33696 12.5 8Z" stroke="#999999" stroke-width="1.5"/>
</svg>

