<svg width="20" height="20" viewBox="0 0 20 20" fill="none"
    xmlns="http://www.w3.org/2000/svg">
    <path d="M1.49909 4.67625C1.49378 4.57789 1.46914 4.48154 1.42658 4.3927C1.38403 4.30386 1.32439 4.22428 1.25108 4.15849C1.17777 4.0927 1.09222 4.04199 0.999307 4.00926C0.906399 3.97654 0.807954 3.96243 0.709594 3.96775C0.611234 3.97307 0.514885 3.99771 0.426047 4.04026C0.33721 4.08282 0.257624 4.14245 0.191833 4.21576C0.126043 4.28907 0.0753369 4.37463 0.0426098 4.46754C0.0098827 4.56044 -0.00422434 4.65889 0.0010942 4.75725L1.49909 4.67625ZM2.46509 0.843248C2.33376 0.988388 2.26437 1.17912 2.27174 1.37472C2.27912 1.57032 2.36267 1.75529 2.50456 1.89013C2.64645 2.02497 2.83543 2.099 3.03115 2.09641C3.22688 2.09381 3.41383 2.0148 3.55209 1.87625L2.46509 0.843248ZM8.41109 17.5632C8.49449 17.617 8.58772 17.6537 8.68539 17.6711C8.78306 17.6886 8.88322 17.6865 8.98007 17.665C9.07692 17.6434 9.16854 17.6029 9.24962 17.5457C9.3307 17.4886 9.39963 17.4159 9.45242 17.3319C9.50521 17.2478 9.5408 17.1542 9.55714 17.0563C9.57348 16.9585 9.57024 16.8583 9.54761 16.7617C9.52497 16.6651 9.4834 16.574 9.42529 16.4936C9.36719 16.4132 9.2937 16.3451 9.20909 16.2932L8.41109 17.5632ZM12.8601 17.8092C12.6653 17.7685 12.4623 17.8069 12.2958 17.9158C12.1292 18.0248 12.0128 18.1954 11.9721 18.3902C11.9314 18.585 11.9697 18.788 12.0787 18.9546C12.1876 19.1211 12.3583 19.2375 12.5531 19.2782L12.8601 17.8092ZM13.3921 13.2952L13.8471 12.8152L12.7591 11.7822L12.3041 12.2622L13.3921 13.2952ZM15.3461 12.6132L17.2561 13.7132L18.0051 12.4132L16.0941 11.3132L15.3461 12.6132ZM17.6251 15.9932L16.2041 17.4882L17.2921 18.5222L18.7121 17.0262L17.6251 15.9932ZM6.10609 13.7102C2.23009 9.62925 1.58009 6.18625 1.49909 4.67625L0.0010942 4.75725C0.101094 6.60725 0.885094 10.3912 5.01909 14.7432L6.10609 13.7102ZM7.48209 7.07325L7.76809 6.77125L6.68109 5.73825L6.39409 6.04025L7.48209 7.07325ZM7.99409 3.01125L6.73309 1.22825L5.50809 2.09425L6.76809 3.87725L7.99409 3.01125ZM6.93709 6.55625C6.75713 6.38279 6.57545 6.21112 6.39209 6.04125L6.39009 6.04325L6.38709 6.04625L6.33709 6.10425C6.23918 6.23407 6.16162 6.37805 6.10709 6.53125C6.00909 6.80625 5.95709 7.17025 6.02309 7.62425C6.15309 8.51625 6.73809 9.71525 8.26509 11.3242L9.35309 10.2902C7.92509 8.78725 7.57309 7.86225 7.50709 7.40625C7.47509 7.18625 7.50709 7.07125 7.52009 7.03425L7.52809 7.01525L7.50009 7.05225L7.48209 7.07325L6.93709 6.55625ZM8.26509 11.3232C9.78809 12.9272 10.9381 13.5572 11.8151 13.7002C12.2661 13.7732 12.6311 13.7142 12.9071 13.6052C13.0605 13.5456 13.2031 13.4612 13.3291 13.3552L13.3641 13.3212L13.3781 13.3072L13.3851 13.3012L13.3881 13.2982L13.3891 13.2962C13.3891 13.2962 13.3911 13.2952 12.8471 12.7782C12.3031 12.2622 12.3041 12.2612 12.3041 12.2602L12.3061 12.2592L12.3081 12.2562L12.3141 12.2512L12.3611 12.2092C12.3704 12.2039 12.3688 12.2042 12.3561 12.2102C12.3361 12.2182 12.2461 12.2502 12.0561 12.2192C11.6541 12.1532 10.7861 11.7992 9.35309 10.2902L8.26509 11.3232ZM6.73309 1.22825C5.71909 -0.205752 3.69109 -0.448752 2.46509 0.843248L3.55209 1.87625C4.07509 1.32625 4.99609 1.36925 5.50809 2.09425L6.73309 1.22825ZM16.2041 17.4882C15.9251 17.7822 15.6341 17.9402 15.3501 17.9682L15.4971 19.4602C16.2441 19.3872 16.8491 18.9892 17.2921 18.5222L16.2041 17.4882ZM7.76809 6.77125C8.73609 5.75225 8.80409 4.15825 7.99409 3.01125L6.76909 3.87725C7.19109 4.47425 7.12609 5.27025 6.68109 5.73825L7.76809 6.77125ZM17.2561 13.7132C18.0771 14.1862 18.2381 15.3482 17.6251 15.9932L18.7121 17.0262C20.0171 15.6522 19.6371 13.3532 18.0051 12.4132L17.2561 13.7132ZM13.8471 12.8152C14.2321 12.4092 14.8331 12.3182 15.3461 12.6132L16.0941 11.3132C14.9951 10.6812 13.6341 10.8622 12.7591 11.7822L13.8471 12.8152ZM9.20909 16.2932C8.22609 15.6752 7.17909 14.8392 6.10609 13.7102L5.01909 14.7432C6.17309 15.9582 7.31609 16.8752 8.41109 17.5632L9.20909 16.2932ZM15.3491 17.9682C14.5162 18.0409 13.677 17.9873 12.8601 17.8092L12.5531 19.2782C13.5196 19.4871 14.5122 19.5485 15.4971 19.4602L15.3491 17.9682Z" fill="#999999"/>
</svg>
