<svg width="50" height="50" viewBox="0 0 50 50" fill="none" xmlns="http://www.w3.org/2000/svg">
<path d="M18.75 50C16.2917 50 14.2183 49.1567 12.53 47.47C10.8417 45.7833 9.99833 43.71 10 41.25C10 40.875 10.0525 40.5833 10.1575 40.375C10.2625 40.1667 10.2517 40 10.125 39.875C9.99833 39.75 9.83167 39.74 9.625 39.845C9.41833 39.95 9.12667 40.0017 8.75 40C6.29167 40 4.21834 39.1567 2.53 37.47C0.841669 35.7833 -0.0016642 33.71 2.46548e-06 31.25C0.00166913 28.79 0.845836 26.7167 2.5325 25.03C4.21917 23.3433 6.29167 22.5 8.75 22.5C9.70833 22.5 10.5833 22.625 11.375 22.875C12.1667 23.125 12.9167 23.5 13.625 24L24 13.625C23.5 12.9167 23.125 12.1667 22.875 11.375C22.625 10.5833 22.5 9.70833 22.5 8.75C22.5 6.29167 23.3442 4.21834 25.0325 2.53C26.7208 0.841669 28.7933 -0.0016642 31.25 2.46548e-06C33.7067 0.00166913 35.78 0.845836 37.47 2.5325C39.16 4.21917 40.0033 6.29167 40 8.75C40 9.125 39.9483 9.41667 39.845 9.625C39.7417 9.83333 39.7517 10 39.875 10.125C39.9983 10.25 40.165 10.2608 40.375 10.1575C40.585 10.0542 40.8767 10.0017 41.25 10C43.7083 10 45.7817 10.8442 47.47 12.5325C49.1583 14.2208 50.0017 16.2933 50 18.75C49.9983 21.2067 49.155 23.28 47.47 24.97C45.785 26.66 43.7117 27.5033 41.25 27.5C40.2917 27.5 39.4167 27.375 38.625 27.125C37.8333 26.875 37.0833 26.5 36.375 26L26 36.375C26.5 37.0833 26.875 37.8333 27.125 38.625C27.375 39.4167 27.5 40.2917 27.5 41.25C27.5 43.7083 26.6567 45.7817 24.97 47.47C23.2833 49.1583 21.21 50.0017 18.75 50ZM18.75 45C19.8333 45 20.7292 44.6458 21.4375 43.9375C22.1458 43.2292 22.5 42.3333 22.5 41.25C22.5 40.875 22.4483 40.5108 22.345 40.1575C22.2417 39.8042 22.085 39.46 21.875 39.125C21.1667 38.125 20.875 37.0525 21 35.9075C21.125 34.7625 21.625 33.7517 22.5 32.875L32.875 22.5C33.75 21.625 34.7608 21.125 35.9075 21C37.0542 20.875 38.1267 21.1667 39.125 21.875C39.4583 22.0833 39.8025 22.24 40.1575 22.345C40.5125 22.45 40.8767 22.5017 41.25 22.5C42.3333 22.5 43.2292 22.1458 43.9375 21.4375C44.6458 20.7292 45 19.8333 45 18.75C45 17.6667 44.6458 16.7708 43.9375 16.0625C43.2292 15.3542 42.3333 15 41.25 15C39.7917 15 38.7708 14.9267 38.1875 14.78C37.6042 14.6333 37 14.2483 36.375 13.625C35.75 13.0017 35.365 12.3975 35.22 11.8125C35.075 11.2275 35.0017 10.2067 35 8.75C35 7.66667 34.6458 6.77084 33.9375 6.0625C33.2292 5.35417 32.3333 5 31.25 5C30.1667 5 29.2708 5.35417 28.5625 6.0625C27.8542 6.77084 27.5 7.66667 27.5 8.75C27.5 9.20833 27.5417 9.59417 27.625 9.9075C27.7083 10.2208 27.875 10.5433 28.125 10.875C28.8333 11.875 29.125 12.9483 29 14.095C28.875 15.2417 28.375 16.2517 27.5 17.125L17.125 27.5C16.25 28.375 15.2392 28.875 14.0925 29C12.9458 29.125 11.8733 28.8333 10.875 28.125C10.5417 27.9167 10.1983 27.7608 9.845 27.6575C9.49167 27.5542 9.12667 27.5017 8.75 27.5C7.66667 27.5 6.77084 27.8542 6.0625 28.5625C5.35417 29.2708 5 30.1667 5 31.25C5 32.3333 5.35417 33.2292 6.0625 33.9375C6.77084 34.6458 7.66667 35 8.75 35C10.2083 35 11.2292 35.0733 11.8125 35.22C12.3958 35.3667 13 35.7517 13.625 36.375C14.25 36.9983 14.635 37.6025 14.78 38.1875C14.925 38.7725 14.9983 39.7933 15 41.25C15 42.3333 15.3542 43.2292 16.0625 43.9375C16.7708 44.6458 17.6667 45 18.75 45Z" fill="#444444"/>
</svg>