<svg width="29" height="24" viewBox="0 0 29 24" fill="none" xmlns="http://www.w3.org/2000/svg">
<path d="M14.5 3.80317L13.7716 4.46998C13.866 4.56306 13.9791 4.6371 14.1043 4.68767C14.2294 4.73824 14.364 4.76431 14.5 4.76431C14.636 4.76431 14.7706 4.73824 14.8957 4.68767C15.0209 4.6371 15.134 4.56306 15.2284 4.46998L14.5 3.80317ZM7.75716 17.8063C7.54968 17.6441 7.2829 17.5669 7.01553 17.5916C6.74815 17.6164 6.50208 17.7411 6.33144 17.9384C6.1608 18.1356 6.07958 18.3893 6.10563 18.6435C6.13168 18.8976 6.26289 19.1316 6.47037 19.2938L7.75716 17.8063ZM1.47293 13.9477C1.5367 14.0586 1.6228 14.1563 1.72631 14.2355C1.82983 14.3147 1.94874 14.3737 2.07624 14.4092C2.20375 14.4447 2.33736 14.4559 2.46944 14.4423C2.60152 14.4287 2.72949 14.3905 2.84605 14.3299C2.9626 14.2693 3.06545 14.1874 3.14873 14.089C3.23201 13.9906 3.29408 13.8775 3.33141 13.7563C3.36873 13.6351 3.38057 13.5081 3.36626 13.3825C3.35195 13.2569 3.31177 13.1353 3.248 13.0245L1.47293 13.9477ZM2.02326 8.46703C2.02326 5.71001 3.66209 3.39667 5.89981 2.42337C8.07414 1.47829 10.9957 1.72834 13.7716 4.46998L15.2284 3.13763C11.9372 -0.115659 8.11191 -0.652958 5.05814 0.674262C2.07181 1.97327 0 4.98933 0 8.46703H2.02326ZM9.77502 21.7559C10.467 22.274 11.2088 22.8254 11.9601 23.2434C12.7114 23.6615 13.5693 24 14.5 24V22.0765C14.0819 22.0765 13.5909 21.9226 12.9812 21.5828C12.3702 21.2443 11.7376 20.7775 11.0281 20.2453L9.77502 21.7559ZM19.225 21.7559C21.1484 20.3133 23.6087 18.6616 25.5375 16.5958C27.5028 14.4927 29 11.8857 29 8.46703H26.9767C26.9767 11.2856 25.7628 13.4566 24.0255 15.3186C22.2518 17.2164 20.0167 18.7129 17.9719 20.2453L19.225 21.7559ZM29 8.46703C29 4.98933 26.9295 1.97327 23.9419 0.674262C20.8881 -0.652958 17.0655 -0.115659 13.7716 3.13635L15.2284 4.46998C18.0043 1.72963 20.9259 1.47829 23.1002 2.42337C25.3379 3.39667 26.9767 5.70872 26.9767 8.46703H29ZM17.9719 20.2453C17.2624 20.7775 16.6298 21.2443 16.0188 21.5828C15.4078 21.9213 14.9181 22.0765 14.5 22.0765V24C15.4307 24 16.2886 23.6602 17.0399 23.2434C17.7925 22.8254 18.533 22.274 19.225 21.7559L17.9719 20.2453ZM11.0281 20.2453C9.95442 19.4413 8.86321 18.6719 7.75716 17.8063L6.47037 19.2938C7.58991 20.1697 8.77419 21.0057 9.77502 21.7559L11.0281 20.2453ZM3.248 13.0257C2.43536 11.6311 2.0136 10.0613 2.02326 8.46703H0C0 10.5675 0.566512 12.3718 1.47293 13.9477L3.248 13.0257Z" fill="#999999"/>
</svg>
